<svg width="64" height="64" viewBox="0 0 64 64" fill="none" xmlns="http://www.w3.org/2000/svg">
<g clip-path="url(#clip0)">
<path d="M0.400136 30.9L30.9001 0.399951C31.5001 -0.200049 32.5001 -0.200049 33.1001 0.399951L63.6001 30.9C64.2001 31.5 64.2001 32.5 63.6001 33.0999L33.1001 63.5999C32.5001 64.2 31.5001 64.2 30.9001 63.5999L0.500136 33.0999C-0.199864 32.5 -0.199864 31.5 0.400136 30.9Z" fill="#FFB100"/>
<path d="M60.7999 32.7C60.9999 32.2 60.9999 31.7 60.7999 31.3C60.6999 31.1 60.5999 30.8 60.3999 30.6L33.3999 3.69998C32.5999 2.89998 31.3999 2.89998 30.5999 3.69998L3.6999 30.6C3.4999 30.8 3.2999 31 3.2999 31.3C3.0999 31.8 3.0999 32.3 3.2999 32.7C3.3999 32.9 3.4999 33.2 3.6999 33.4L30.5999 60.3C31.3999 61.1 32.5999 61.1 33.3999 60.3L60.2999 33.4C60.4999 33.2 60.6999 33 60.7999 32.7ZM32.4999 59.4C32.1999 59.7 31.6999 59.7 31.4999 59.4L4.5999 32.5C4.2999 32.2 4.2999 31.7 4.5999 31.5L31.4999 4.49998C31.7999 4.19998 32.2999 4.19998 32.4999 4.49998L59.3999 31.4C59.6999 31.7 59.6999 32.2 59.3999 32.4L32.4999 59.4Z" fill="#171C45"/>
<path d="M40.9003 51.0999L39.7003 52.2999H41.4003L42.6003 51.0999H40.9003ZM23.2003 51.0999H21.5003L22.7003 52.2999H24.4003L23.2003 51.0999ZM46.1003 45.8999L44.9003 47.0999H46.6003L47.8003 45.8999H46.1003ZM17.9003 45.8999H16.2003L17.4003 47.0999H19.1003L17.9003 45.8999ZM35.6003 56.3999L34.4003 57.5999H36.1003L37.3003 56.3999H35.6003ZM28.4003 56.3999H26.7003L27.9003 57.5999H29.6003L28.4003 56.3999ZM38.2003 53.7999L37.0003 54.9999H38.7003L39.9003 53.7999H38.2003ZM25.8003 53.7999H24.1003L25.3003 54.9999H27.0003L25.8003 53.7999ZM54.0003 37.9999L52.8003 39.1999H54.5003L55.7003 37.9999H54.0003ZM10.0003 37.9999H8.30029L9.50029 39.1999H11.2003L10.0003 37.9999ZM56.6003 35.2999L55.4003 36.4999H57.1003L58.3003 35.2999H56.6003ZM7.40029 35.2999H5.60029L6.80029 36.4999H8.50029L7.40029 35.2999ZM60.8003 32.6999H59.3003L58.1003 33.8999H59.8003L60.3003 33.3999C60.5003 33.1999 60.7003 32.9999 60.8003 32.6999ZM4.70029 32.6999H3.30029C3.40029 32.8999 3.50029 33.1999 3.70029 33.3999L4.20029 33.8999H6.00029L4.70029 32.6999ZM48.7003 43.1999L47.5003 44.3999H49.2003L50.4003 43.1999H48.7003ZM15.3003 43.1999H13.6003L14.8003 44.3999H16.5003L15.3003 43.1999ZM51.4003 40.5999L50.2003 41.7999H51.9003L53.1003 40.5999H51.4003ZM12.6003 40.5999H10.9003L12.1003 41.7999H13.8003L12.6003 40.5999ZM33.0003 58.9999L32.6003 59.3999C32.3003 59.6999 31.8003 59.6999 31.6003 59.3999L31.1003 58.9999H29.4003L30.6003 60.1999H33.5003L34.7003 58.9999H33.0003ZM43.5003 48.4999L42.3003 49.6999H44.0003L45.2003 48.4999H43.5003ZM20.5003 48.4999H18.8003L20.0003 49.6999H21.7003L20.5003 48.4999ZM41.3003 11.6999H39.6003L40.8003 12.8999H42.5003L41.3003 11.6999ZM22.6003 11.6999L21.4003 12.8999H23.1003L24.3003 11.6999H22.6003ZM44.0003 14.2999H42.3003L43.5003 15.4999H45.2003L44.0003 14.2999ZM20.0003 14.2999L18.8003 15.4999H20.5003L21.7003 14.2999H20.0003ZM33.5003 3.79993H30.6003L29.3003 4.99993H31.0003L31.4003 4.59993C31.7003 4.29993 32.2003 4.29993 32.4003 4.59993L32.9003 4.99993H34.6003L33.5003 3.79993ZM38.7003 8.99993H37.0003L38.2003 10.1999H39.9003L38.7003 8.99993ZM25.3003 8.99993L24.1003 10.1999H25.8003L27.0003 8.99993H25.3003ZM27.9003 6.39993L26.7003 7.59993H28.4003L29.6003 6.39993H27.9003ZM36.1003 6.39993H34.4003L35.6003 7.59993H37.3003L36.1003 6.39993ZM46.6003 16.8999H44.9003L46.1003 18.0999H47.8003L46.6003 16.8999ZM17.4003 16.8999L16.2003 18.0999H17.9003L19.1003 16.8999H17.4003ZM54.5003 24.7999H52.8003L54.0003 25.9999H55.7003L54.5003 24.7999ZM9.50029 24.7999L8.30029 25.9999H10.0003L11.2003 24.7999H9.50029ZM60.3003 30.5999L59.8003 30.0999H58.1003L59.3003 31.2999H60.8003C60.7003 30.9999 60.5003 30.7999 60.3003 30.5999ZM4.20029 30.0999L3.70029 30.5999C3.50029 30.7999 3.30029 30.9999 3.30029 31.2999H4.80029L6.00029 30.0999H4.20029ZM57.1003 27.3999H55.4003L56.6003 28.5999H58.3003L57.1003 27.3999ZM6.90029 27.3999L5.70029 28.5999H7.40029L8.60029 27.3999H6.90029ZM49.3003 19.4999H47.6003L48.8003 20.6999H50.5003L49.3003 19.4999ZM14.8003 19.4999L13.6003 20.6999H15.3003L16.5003 19.4999H14.8003ZM51.9003 22.1999H50.2003L51.4003 23.3999H53.1003L51.9003 22.1999ZM12.1003 22.1999L10.9003 23.3999H12.6003L13.8003 22.1999H12.1003Z" fill="#59595B"/>
<path d="M58.3002 32.0999C58.3002 32.7999 57.7002 33.3999 57.0002 33.3999C56.3002 33.3999 55.7002 32.7999 55.7002 32.0999C55.7002 31.3999 56.3002 30.7999 57.0002 30.7999C57.7002 30.8999 58.3002 31.3999 58.3002 32.0999Z" fill="url(#paint0_linear)"/>
<path d="M57.9001 32.0999C57.9001 32.5999 57.5001 33 57.0001 33C56.5001 33 56.1001 32.5999 56.1001 32.0999C56.1001 31.5999 56.5001 31.2 57.0001 31.2C57.5001 31.2 57.9001 31.5999 57.9001 32.0999Z" fill="url(#paint1_linear)"/>
<path d="M57.8002 32.0999C57.8002 32.4999 57.5002 32.8999 57.0002 32.8999C56.5002 32.8999 56.2002 32.5999 56.2002 32.0999C56.2002 31.6999 56.5002 31.2999 57.0002 31.2999C57.5002 31.2999 57.8002 31.6999 57.8002 32.0999Z" fill="#E5E5E6"/>
<path d="M9.2001 32.0999C9.2001 32.7999 8.6001 33.3999 7.9001 33.3999C7.2001 33.3999 6.6001 32.7999 6.6001 32.0999C6.6001 31.3999 7.2001 30.7999 7.9001 30.7999C8.6001 30.8999 9.2001 31.3999 9.2001 32.0999Z" fill="url(#paint2_linear)"/>
<path d="M8.8 32.0999C8.8 32.5999 8.4 33 7.9 33C7.4 33 7 32.5999 7 32.0999C7 31.5999 7.4 31.2 7.9 31.2C8.4 31.2 8.8 31.5999 8.8 32.0999Z" fill="url(#paint3_linear)"/>
<path d="M8.7001 32.0999C8.7001 32.4999 8.4001 32.8999 7.9001 32.8999C7.5001 32.8999 7.1001 32.5999 7.1001 32.0999C7.1001 31.6999 7.4001 31.2999 7.9001 31.2999C8.4001 31.2999 8.7001 31.6999 8.7001 32.0999Z" fill="#E5E5E6"/>
<path d="M32.0001 44.8C33.6017 44.8 34.9001 43.5016 34.9001 41.9C34.9001 40.2984 33.6017 39 32.0001 39C30.3985 39 29.1001 40.2984 29.1001 41.9C29.1001 43.5016 30.3985 44.8 32.0001 44.8Z" fill="#171C45"/>
<path d="M35 19.2H29L30 36.7H34L35 19.2Z" fill="#171C45"/>
</g>
<defs>
<linearGradient id="paint0_linear" x1="55.7399" y1="32.1236" x2="58.2536" y2="32.1236" gradientUnits="userSpaceOnUse">
<stop stop-color="#BABCBE"/>
<stop offset="1" stop-color="#6D6E70"/>
</linearGradient>
<linearGradient id="paint1_linear" x1="56.9837" y1="31.2622" x2="56.9837" y2="33.0375" gradientUnits="userSpaceOnUse">
<stop stop-color="#BABCBE"/>
<stop offset="1" stop-color="#6D6E70"/>
</linearGradient>
<linearGradient id="paint2_linear" x1="6.6684" y1="32.1236" x2="9.1815" y2="32.1236" gradientUnits="userSpaceOnUse">
<stop stop-color="#BABCBE"/>
<stop offset="1" stop-color="#6D6E70"/>
</linearGradient>
<linearGradient id="paint3_linear" x1="7.9119" y1="31.2622" x2="7.9119" y2="33.0375" gradientUnits="userSpaceOnUse">
<stop stop-color="#BABCBE"/>
<stop offset="1" stop-color="#6D6E70"/>
</linearGradient>
<clipPath id="clip0">
<rect width="64" height="64" fill="white"/>
</clipPath>
</defs>
</svg>
