<svg xmlns="http://www.w3.org/2000/svg" fill="none" viewBox="0 0 108 24">
  <path fill="#FDA407" d="M2.355 23.847c-1.034 0-2.025-.748-2.289-1.716-.264-.969.198-2.091 1.1-2.62.419-.242.881-.352 1.365-.396 2.4-.176 3.17-.946 3.39-3.39.132-1.54 1.034-2.42 2.597-2.575 2.421-.22 3.103-.902 3.412-3.39.154-1.386 1.012-2.376 2.2-2.486 1.08-.11 2.092.55 2.444 1.628.396 1.189-.33 2.554-1.563 2.95-.242.066-.506.11-.748.154-2.73.352-3.17.792-3.478 3.521-.176 1.453-1.21 2.4-2.73 2.466-2.09.088-3.059 1.034-3.257 3.147-.154 1.65-1.078 2.707-2.443 2.707z"/>
  <path fill="#FDA407" d="M22.913 9.585c0 1.1-.749 2.025-1.827 2.289a7.328 7.328 0 01-1.189.154c-1.695.154-2.641 1.1-2.795 2.773l-.066.66c-.264 1.63-1.145 2.421-2.796 2.51-2.046.088-3.103 1.144-3.235 3.213-.022.352-.066.726-.198 1.056-.374 1.035-1.475 1.717-2.487 1.585-1.057-.154-1.893-.946-2.047-1.98-.154-1.035.506-2.114 1.518-2.532.485-.198.99-.198 1.52-.22 1.584-.088 2.662-1.122 2.816-2.663.243-2.443.749-2.972 3.17-3.302 1.937-.286 2.795-1.166 2.927-3.191.044-.77.22-1.43.77-1.96.727-.681 1.585-.88 2.532-.483.88.33 1.387 1.122 1.387 2.09z"/>
  <path fill="#fff" d="M2.377 17.772c-1.21 0-2.223-.858-2.355-2.002-.132-1.233.748-2.4 1.98-2.62.397-.066.793-.044 1.211-.11 1.607-.22 2.598-1.298 2.708-2.927.132-2.113.902-2.861 3.037-3.06 1.893-.176 2.795-1.078 2.95-2.993.154-1.827 1.232-2.971 2.663-2.817 1.188.132 2.113 1.1 2.135 2.267.022 1.122-.837 2.179-2.003 2.42-.33.067-.66.045-.99.067-1.761.154-2.796 1.189-2.928 2.927-.154 2.091-.88 2.84-2.95 3.038-2.002.176-2.86 1.078-3.059 3.125-.176 1.761-.99 2.685-2.399 2.685z"/>
  <path fill="#fff" d="M2.421 11.61c-1.1.022-2.113-.727-2.355-1.761-.264-1.013.264-2.135 1.255-2.664.418-.22.88-.308 1.364-.33C4.82 6.745 5.767 5.8 5.921 3.664c.132-1.717 1.232-2.84 2.663-2.641 1.189.154 2.091 1.144 2.091 2.289-.022 1.32-1.034 2.399-2.465 2.399-1.32.022-2.355.396-3.06 1.54-.418.66-.308 1.41-.418 2.113-.198 1.277-1.166 2.223-2.31 2.245zM12.524 21.668c-.022-1.43.946-2.399 2.42-2.553 2.62-.264 3.214-.858 3.5-3.5.133-1.386 1.167-2.399 2.4-2.399 1.254.022 2.245.947 2.31 2.157.067 1.365-.858 2.4-2.288 2.575-2.818.33-3.258.749-3.654 3.632-.176 1.233-.924 2.091-2.047 2.223-1.034.132-1.849-.308-2.377-1.21-.198-.308-.308-.66-.264-.925z"/>
  <path fill="#FDA407" d="M22.913 3.62c-.022 1.276-1.035 2.245-2.333 2.223-1.299-.022-2.311-1.035-2.311-2.29 0-1.188 1.144-2.332 2.31-2.332 1.277-.022 2.356 1.1 2.334 2.399z"/>
  <path fill="#fff" d="M107.916 16.662h-12.37c-.065 2.113 1.167 3.808 3.126 4.446 2.003.639 3.962.066 5.04-1.585.331-.528.683-.66 1.233-.616.792.044 1.607 0 2.421 0-.22 2.113-2.465 4.38-4.908 5.018-5.635 1.453-10.477-2.31-10.389-8.121.044-3.236 1.189-5.987 4.226-7.462 2.883-1.408 5.833-1.364 8.54.506 2.663 1.85 3.434 4.535 3.081 7.814zm-3.433-2.399c-.088-2.355-1.717-3.896-4.138-4.006-2.487-.132-4.424 1.497-4.754 4.006h8.892zM73.58 7.814h2.972c.11.814.198 1.629.33 2.597 1.474-2.245 3.5-3.147 6.03-2.971 3.192.242 5.327 2.113 5.503 5.282.198 3.632.044 7.264.044 10.983h-3.28v-8.011c0-.617.022-1.233-.044-1.85-.22-1.936-1.21-3.147-2.817-3.433-1.893-.352-3.786.396-4.578 2.025a6.979 6.979 0 00-.682 2.818c-.088 2.795-.022 5.59-.022 8.473h-3.434c-.022-5.304-.022-10.565-.022-15.913zM57.843 23.75h-3.367V7.857h2.971c.11.792.198 1.585.308 2.51.176-.221.308-.375.418-.53 1.607-2.09 4.27-2.926 7-2.178 2.399.66 4.005 2.443 4.138 5.172.176 3.588.044 7.198.044 10.873h-3.302v-3.213c0-1.937.022-3.852-.022-5.789-.044-2.817-1.255-4.27-3.544-4.336-2.553-.066-4.446 1.629-4.556 4.27-.11 2.685-.044 5.393-.066 8.078.022.33 0 .66-.022 1.034zM34.006 23.75V7.857h2.971c.11.858.22 1.739.352 2.795 1.453-2.113 3.302-3.257 5.9-3.147v3.455c-.75.066-1.564.088-2.334.242-2.135.44-3.302 1.673-3.412 3.808-.132 2.51-.088 5.019-.132 7.528v1.21h-3.345zM46.53 7.836h3.39V23.683h-3.39V7.836z"/>
  <path fill="#FDA407" d="M48.159 0c-1.519.022-2.532 1.035-2.553 2.554 0 1.54 1.1 2.64 2.597 2.619 1.474-.022 2.53-1.1 2.575-2.575.022-1.52-1.079-2.62-2.62-2.598zm.044 3.632c-.617 0-1.057-.44-1.057-1.056 0-.617.418-1.013 1.035-1.013.616 0 1.056.44 1.056 1.035-.022.594-.44 1.012-1.034 1.034zM28.525 1h-.44v22.89h.44V1z"/>
</svg>
