<svg width="26" height="32" viewBox="0 0 26 32" fill="none" xmlns="http://www.w3.org/2000/svg">
<path d="M18.05 0H6.3H1.9H0V1.9V11.75H25.05V7L18.05 0Z" fill="#F16A5F"/>
<path d="M25.05 11.75H0V32H25.05V11.75Z" fill="#F3796A"/>
<path d="M18.0498 0L25.0498 7H18.0498V0Z" fill="#C7574E"/>
<path d="M4.05 6.3499V7.4999H3.5V4.3999H4.7C5.05 4.3999 5.3 4.4999 5.5 4.6499C5.7 4.8499 5.8 5.0499 5.8 5.3499C5.8 5.6499 5.7 5.8499 5.5 6.0499C5.3 6.2499 5.05 6.2999 4.7 6.2999H4.05V6.3499ZM4.05 5.8999H4.75C4.95 5.8999 5.1 5.8499 5.2 5.7499C5.3 5.6499 5.35 5.4999 5.35 5.3499C5.35 5.1999 5.3 5.0499 5.2 4.9499C5.1 4.8499 4.95 4.7999 4.75 4.7999H4.05V5.8999Z" fill="white"/>
<path d="M6.2998 7.4999V4.3999H7.2998C7.6998 4.3999 7.9998 4.4999 8.2498 4.7499C8.4998 4.9999 8.5998 5.2999 8.5998 5.6999V6.1499C8.5998 6.5499 8.4998 6.8499 8.2498 7.0999C7.9998 7.3999 7.6998 7.4999 7.2998 7.4999H6.2998ZM6.7998 4.7999V7.0499H7.2498C7.4998 7.0499 7.6998 6.9499 7.8498 6.7999C7.9998 6.6499 8.0498 6.3999 8.0498 6.1499V5.6499C8.0498 5.3999 7.9998 5.1499 7.8498 4.9999C7.6998 4.8499 7.4998 4.7499 7.2498 4.7499H6.7998V4.7999Z" fill="white"/>
<path d="M10.9999 6.1999H9.6499V7.4999H9.1499V4.3999H11.2499V4.7999H9.6499V5.7499H10.9999V6.1999Z" fill="white"/>
<path d="M19.3502 16.7002H11.4502V17.5002H19.3502V16.7002Z" fill="#FAC0B2"/>
<path d="M19.3502 19.3501H11.4502V20.1501H19.3502V19.3501Z" fill="#FAC0B2"/>
<path d="M19.3499 22.0503H6.1499V22.8503H19.3499V22.0503Z" fill="#FAC0B2"/>
<path d="M19.3499 24.7002H6.1499V25.5002H19.3499V24.7002Z" fill="#FAC0B2"/>
<path d="M9.6001 16.7002H6.1001V20.1502H9.6001V16.7002ZM8.8001 19.3502H6.8501V17.5002H8.8001V19.3502Z" fill="#FAC0B2"/>
</svg>
