<svg xmlns="http://www.w3.org/2000/svg" fill="none" viewBox="0 0 24 24">
  <path fill="#fff" fill-rule="evenodd" d="M11.99 8c0 1.66-1.33 3-2.99 3-1.66 0-3-1.34-3-3s1.34-3 3-3 2.99 1.34 2.99 3zm7 1.5c0 1.38-1.11 2.5-2.49 2.5a2.5 2.5 0 010-5c1.38 0 2.49 1.12 2.49 2.5zM16.5 14c-1.83 0-5.5.92-5.5 2.75V18c0 .55.45 1 1 1h9c.55 0 1-.45 1-1v-1.25c0-1.83-3.67-2.75-5.5-2.75zM2 16.5C2 14.17 6.67 13 9 13c.66 0 1.5.1 2.37.28C9.33 14.41 9 15.9 9 16.75V19H3c-.55 0-1-.45-1-1v-1.5z" clip-rule="evenodd"/>
</svg>
