<svg width="589" height="581" viewBox="0 0 589 581" fill="none" xmlns="http://www.w3.org/2000/svg">
<path d="M60.0062 580.208C33.7356 580.208 8.58289 561.204 1.87549 536.61C-4.8319 512.016 6.90604 483.51 29.823 470.095C40.443 463.946 52.1809 461.152 64.4778 460.034C125.403 455.562 144.967 435.999 150.556 373.955C153.91 334.829 176.827 312.471 216.512 308.558C277.997 302.969 295.324 285.641 303.149 222.48C307.062 187.266 328.861 162.114 359.044 159.319C386.433 156.524 412.144 173.293 421.088 200.681C431.149 230.864 412.703 265.519 381.402 275.58C375.254 277.257 368.546 278.375 362.398 279.493C293.088 288.436 281.909 299.615 274.084 368.925C269.612 405.816 243.342 429.85 204.774 431.527C151.674 433.763 127.08 457.798 122.05 511.457C118.137 553.378 94.6611 580.208 60.0062 580.208Z" fill="#FDA407"/>
<path d="M582.067 218.006C582.067 245.953 563.063 269.429 535.674 276.136C525.613 278.372 515.552 279.49 505.491 280.049C462.452 283.962 438.417 307.997 434.504 350.477C433.945 356.066 433.386 361.656 432.827 367.245C426.12 408.607 403.762 428.73 361.841 430.965C309.858 433.201 283.029 460.031 279.675 512.572C279.116 521.515 277.998 531.017 274.645 539.402C265.142 565.672 237.195 583 211.483 579.646C184.654 575.733 163.414 555.611 159.501 529.341C155.588 503.07 172.357 475.681 198.069 465.061C210.365 460.031 223.221 460.031 236.636 459.472C276.88 457.236 304.269 430.965 308.182 391.839C314.33 329.796 327.186 316.381 388.67 307.997C437.858 300.73 459.657 278.372 463.011 226.949C464.129 207.386 468.6 190.617 482.574 177.202C501.019 159.875 522.818 154.844 546.853 164.906C569.211 173.29 582.067 193.412 582.067 218.006Z" fill="#FDA407"/>
<path d="M60.5682 425.938C29.826 425.938 4.11432 404.139 0.76062 375.073C-2.59308 343.772 19.7649 314.148 51.0661 308.558C61.1272 306.882 71.1883 307.44 81.8083 305.764C122.612 300.174 147.764 272.786 150.559 231.423C153.913 177.764 173.476 158.76 227.694 153.729C275.764 149.258 298.681 126.341 302.593 77.7123C306.506 31.3195 333.895 2.25416 370.226 6.1668C400.41 9.5205 423.885 34.1143 424.444 63.7386C425.003 92.245 403.204 119.075 373.58 125.223C365.196 126.9 356.811 126.341 348.427 126.9C303.711 130.813 277.441 157.083 274.087 201.24C270.174 254.34 251.729 273.345 199.188 278.375C148.323 282.847 126.524 305.764 121.494 357.746C117.022 402.462 96.341 425.938 60.5682 425.938Z" fill="white"/>
<path d="M61.6807 269.429C33.7332 269.987 8.02155 250.983 1.87311 224.713C-4.83428 199.001 8.5805 170.495 33.7332 157.08C44.3533 151.49 56.0912 149.254 68.3881 148.696C122.606 145.901 146.641 121.866 150.554 67.6479C153.907 24.0498 181.855 -4.45657 218.186 0.573969C248.37 4.48661 271.287 29.6393 271.287 58.7047C270.728 92.2417 245.016 119.63 208.684 119.63C175.147 120.189 148.877 129.691 130.99 158.757C120.37 175.525 123.165 194.529 120.37 212.416C115.34 244.835 90.746 268.87 61.6807 269.429Z" fill="white"/>
<path d="M318.239 524.869C317.68 488.537 342.274 463.943 379.724 460.031C446.239 453.323 461.33 438.232 468.597 371.158C471.95 335.944 498.221 310.232 529.522 310.232C561.382 310.791 586.535 334.267 588.212 365.009C589.889 399.664 566.413 425.935 530.081 430.406C458.536 438.791 447.357 449.411 437.296 522.633C432.824 553.934 413.82 575.733 385.313 579.087C359.043 582.441 338.361 571.262 324.947 548.345C319.916 540.52 317.121 531.576 318.239 524.869Z" fill="white"/>
<path d="M582.065 66.5259C581.506 98.9449 555.795 123.539 522.817 122.98C489.839 122.421 464.127 96.7091 464.127 64.849C464.127 34.6657 493.192 5.60037 522.817 5.60037C555.236 5.04142 582.624 33.5478 582.065 66.5259Z" fill="#FDA407"/>
</svg>
