<svg xmlns="http://www.w3.org/2000/svg" fill="none" viewBox="0 0 20 20"><circle cx="10" cy="10" r="10" fill="#113083"/><g clip-path="url(#clip0)"><path fill="#fff" d="M5.1815 15.9237c-.5173 0-1.0125-.3742-1.1446-.8584-.132-.4842.099-1.0455.5503-1.3096.209-.1211.4402-.1761.6823-.1981 1.1996-.0881 1.5847-.4732 1.6948-1.6948.066-.7704.5172-1.2106 1.2986-1.2876 1.2106-.1101 1.5517-.4512 1.7058-1.6948.077-.6933.5062-1.1886 1.1005-1.2436.5393-.055 1.0455.2752 1.2216.8144.1981.5943-.1651 1.2766-.7814 1.4747-.121.033-.2531.055-.3742.077-1.3646.1761-1.5847.3962-1.7388 1.7608-.088.7264-.6053 1.1996-1.3646 1.2326-1.0455.044-1.5297.5173-1.6288 1.5738-.077.8253-.5392 1.3536-1.2215 1.3536z"/><path fill="#fff" d="M15.4603 8.7922c0 .5502-.3742 1.0125-.9134 1.1445-.1981.044-.3962.066-.5943.0771-.8474.077-1.3206.5502-1.3977 1.3866l-.033.3302c-.132.8143-.5722 1.2105-1.3976 1.2545-1.0235.0441-1.5518.5723-1.6178 1.6068-.011.1761-.033.3632-.099.5282-.1871.5173-.7374.8584-1.2436.7924-.5283-.077-.9465-.4732-1.0235-.9905-.077-.5172.2531-1.0565.7594-1.2655.242-.0991.4952-.0991.7593-.1101.7924-.044 1.3316-.5613 1.4087-1.3316.121-1.2216.3741-1.4857 1.5847-1.6508.9685-.1431 1.3977-.5833 1.4637-1.5957.022-.3852.11-.7154.3852-.9795.3631-.3412.7923-.4402 1.2656-.2421.4402.165.6933.5613.6933 1.0455z"/><path fill="#F7F8FA" d="M5.1925 12.8863c-.6053 0-1.1115-.4292-1.1775-1.0015-.066-.6163.3742-1.1995.9904-1.3096.1981-.033.3962-.022.6053-.055.8034-.1101 1.2986-.6493 1.3537-1.4637C7.0303 8 7.4155 7.6258 8.483 7.5268c.9464-.088 1.3976-.5393 1.4747-1.4967.077-.9135.6162-1.4857 1.3316-1.4087.5942.066 1.0565.5503 1.0675 1.1335.011.5613-.4182 1.0896-1.0015 1.2106-.1651.033-.3302.022-.4952.033-.8804.077-1.3977.5943-1.4637 1.4637-.077 1.0455-.4402 1.4197-1.4747 1.5187-1.0015.0881-1.4307.5393-1.5297 1.5628-.088.8804-.4952 1.3426-1.1996 1.3426z"/><path fill="#F7F8FA" d="M5.2144 9.8048c-.5502.011-1.0565-.3632-1.1775-.8804-.132-.5063.132-1.0675.6273-1.3317.209-.11.4402-.154.6823-.165 1.0675-.055 1.5407-.5283 1.6177-1.5958.066-.8584.6163-1.4196 1.3317-1.3206.5942.077 1.0455.5723 1.0455 1.1445-.011.6603-.5173 1.1996-1.2326 1.1996-.6603.011-1.1776.198-1.5297.7703-.2091.3302-.1541.7044-.2091 1.0565-.099.6384-.5833 1.1116-1.1556 1.1226zM10.2658 14.8341c-.011-.7153.4732-1.1995 1.2106-1.2766 1.3096-.132 1.6067-.4292 1.7498-1.7498.066-.6933.5833-1.1995 1.1995-1.1995.6273.011 1.1226.4732 1.1556 1.0785.033.6823-.4292 1.1995-1.1446 1.2876-1.4086.165-1.6287.3741-1.8268 1.8158-.088.6163-.4622 1.0455-1.0235 1.1115-.5172.0661-.9244-.154-1.1885-.6053-.0991-.154-.1541-.3301-.1321-.4622z"/><path fill="#fff" d="M15.4603 5.8098c-.011.6383-.5173 1.1225-1.1666 1.1115-.6493-.011-1.1555-.5172-1.1555-1.1445 0-.5943.5722-1.1665 1.1555-1.1665.6383-.011 1.1776.5502 1.1666 1.1995z"/></g><defs><clipPath id="clip0"><path fill="#fff" d="M0 0h12v12H0z" transform="translate(4 4)"/></clipPath></defs></svg>
