<svg xmlns="http://www.w3.org/2000/svg" fill="none" viewBox="0 0 68 68">
  <rect width="68" height="68" fill="#93A9BC" fill-opacity=".1" rx="5"/>
  <rect width="67" height="67" x=".5" y=".5" stroke="#93A9BC" stroke-dasharray="2 2" stroke-opacity=".5" rx="4.5"/>
  <path fill="#93A9BC" fill-opacity=".5" d="M21.31 50c-1.45 0-2.837-1.048-3.207-2.405-.37-1.356.278-2.928 1.542-3.668.586-.34 1.233-.493 1.911-.555 3.36-.247 4.44-1.326 4.748-4.747.185-2.158 1.449-3.392 3.637-3.607 3.391-.309 4.347-1.264 4.779-4.748.215-1.942 1.418-3.33 3.082-3.483 1.51-.154 2.929.77 3.422 2.281.555 1.665-.462 3.576-2.188 4.13-.34.093-.71.155-1.049.217-3.822.493-4.439 1.11-4.87 4.932-.247 2.035-1.696 3.36-3.823 3.453-2.929.123-4.285 1.449-4.563 4.408C24.516 48.52 23.221 50 21.31 50z"/>
  <path fill="#93A9BC" fill-opacity=".5" d="M50.102 30.024c0 1.541-1.048 2.836-2.559 3.206-.554.123-1.11.185-1.664.216-2.374.215-3.7 1.541-3.915 3.884l-.093.925c-.37 2.281-1.603 3.39-3.915 3.514-2.867.123-4.347 1.603-4.532 4.5-.03.494-.092 1.018-.277 1.48-.524 1.45-2.066 2.405-3.484 2.22-1.48-.215-2.65-1.325-2.867-2.774-.215-1.45.71-2.96 2.127-3.545.679-.278 1.388-.278 2.128-.309 2.22-.123 3.73-1.572 3.945-3.73.34-3.422 1.049-4.162 4.44-4.624 2.712-.4 3.915-1.634 4.1-4.47.061-1.079.308-2.004 1.079-2.744 1.017-.955 2.22-1.233 3.545-.678 1.233.463 1.942 1.572 1.942 2.929zM21.34 41.492c-1.695 0-3.113-1.203-3.298-2.806-.185-1.726 1.048-3.36 2.774-3.668.555-.093 1.11-.062 1.696-.154 2.25-.309 3.637-1.82 3.792-4.1.185-2.96 1.264-4.008 4.254-4.285 2.651-.247 3.915-1.511 4.13-4.193.217-2.559 1.727-4.162 3.73-3.946 1.666.185 2.96 1.541 2.991 3.175.031 1.572-1.171 3.052-2.805 3.391-.462.093-.925.062-1.387.093-2.467.216-3.916 1.664-4.1 4.1-.216 2.928-1.234 3.977-4.131 4.254-2.806.247-4.008 1.51-4.285 4.378-.247 2.466-1.388 3.76-3.36 3.76z"/>
  <path fill="#93A9BC" fill-opacity=".5" d="M21.402 32.86c-1.541.03-2.96-1.017-3.299-2.466-.37-1.418.37-2.99 1.758-3.73.585-.309 1.233-.432 1.911-.463 2.99-.154 4.316-1.48 4.532-4.47.185-2.405 1.726-3.977 3.73-3.7 1.665.216 2.928 1.604 2.928 3.207-.03 1.85-1.448 3.36-3.452 3.36-1.85.03-3.299.555-4.285 2.158-.586.925-.432 1.973-.586 2.96-.277 1.787-1.634 3.113-3.237 3.144zM35.552 46.948c-.03-2.004 1.326-3.36 3.391-3.576 3.669-.37 4.501-1.202 4.902-4.901.185-1.943 1.634-3.36 3.36-3.36 1.757.03 3.144 1.325 3.237 3.02.092 1.912-1.202 3.36-3.206 3.607-3.946.463-4.563 1.048-5.118 5.087-.246 1.726-1.294 2.928-2.867 3.113-1.448.185-2.59-.431-3.329-1.695-.277-.432-.432-.925-.37-1.295zM50.103 21.67c-.031 1.787-1.45 3.144-3.268 3.113-1.819-.031-3.237-1.449-3.237-3.206 0-1.665 1.603-3.268 3.237-3.268 1.788-.03 3.299 1.541 3.268 3.36z"/>
</svg>
