<svg width="20" height="20" viewBox="0 0 20 20" fill="none" xmlns="http://www.w3.org/2000/svg">
<circle cx="10" cy="10" r="10" fill="#113083"/>
<g clip-path="url(#clip0)">
<path d="M5.18146 15.9237C4.66422 15.9237 4.16899 15.5495 4.03693 15.0653C3.90486 14.5811 4.13597 14.0198 4.58718 13.7557C4.79628 13.6346 5.02739 13.5796 5.2695 13.5576C6.46906 13.4695 6.85424 13.0844 6.96429 11.8628C7.03032 11.0924 7.48153 10.6522 8.2629 10.5752C9.47346 10.4651 9.81462 10.124 9.96869 8.8804C10.0457 8.18708 10.4749 7.69185 11.0692 7.63682C11.6085 7.5818 12.1147 7.91195 12.2908 8.4512C12.4889 9.04548 12.1257 9.7278 11.5094 9.92589C11.3884 9.95891 11.2563 9.98092 11.1352 10.0029C9.7706 10.179 9.5505 10.3991 9.39643 11.7637C9.30839 12.4901 8.79114 12.9633 8.03179 12.9963C6.9863 13.0403 6.50208 13.5136 6.40303 14.5701C6.32599 15.3954 5.86378 15.9237 5.18146 15.9237Z" fill="white"/>
<path d="M15.4603 8.79218C15.4603 9.34244 15.0861 9.80465 14.5469 9.93671C14.3488 9.98074 14.1507 10.0027 13.9526 10.0138C13.1052 10.0908 12.632 10.564 12.5549 11.4004C12.5439 11.5104 12.5329 11.6205 12.5219 11.7306C12.3899 12.5449 11.9497 12.9411 11.1243 12.9851C10.1008 13.0292 9.57254 13.5574 9.50651 14.5919C9.49551 14.768 9.4735 14.9551 9.40746 15.1201C9.22038 15.6374 8.67012 15.9785 8.16388 15.9125C7.63564 15.8355 7.21744 15.4393 7.14041 14.922C7.06337 14.4048 7.39353 13.8655 7.89976 13.6565C8.14187 13.5574 8.39499 13.5574 8.65912 13.5464C9.45149 13.5024 9.99074 12.9851 10.0678 12.2148C10.1888 10.9932 10.4419 10.7291 11.6525 10.564C12.621 10.4209 13.0502 9.98074 13.1162 8.96826C13.1382 8.58308 13.2262 8.25293 13.5014 7.98881C13.8645 7.64765 14.2937 7.5486 14.767 7.74669C15.2072 7.91177 15.4603 8.30795 15.4603 8.79218Z" fill="white"/>
<path d="M5.19253 12.8863C4.58724 12.8863 4.08101 12.4571 4.01498 11.8848C3.94895 11.2685 4.38915 10.6853 5.00544 10.5752C5.20353 10.5422 5.40162 10.5532 5.61072 10.5202C6.4141 10.4101 6.90933 9.87087 6.96435 9.05649C7.03038 8 7.41556 7.62582 8.48306 7.52678C9.4295 7.43874 9.88072 6.98753 9.95775 6.03008C10.0348 5.11665 10.574 4.54439 11.2894 4.62142C11.8836 4.68745 12.3459 5.17168 12.3569 5.75495C12.3679 6.31621 11.9387 6.84446 11.3554 6.96552C11.1903 6.99853 11.0252 6.98753 10.8602 6.99853C9.97976 7.07557 9.46252 7.59281 9.39649 8.46222C9.31945 9.5077 8.95628 9.88188 7.9218 9.98092C6.92033 10.069 6.49113 10.5202 6.39209 11.5437C6.30405 12.4241 5.89686 12.8863 5.19253 12.8863Z" fill="#F7F8FA"/>
<path d="M5.21442 9.80477C4.66417 9.81578 4.15793 9.4416 4.03687 8.92436C3.90481 8.41812 4.16894 7.85686 4.66417 7.59274C4.87326 7.48269 5.10437 7.43867 5.34649 7.42766C6.41398 7.37264 6.8872 6.89942 6.96424 5.83192C7.03027 4.97352 7.58053 4.41225 8.29586 4.5113C8.89014 4.58834 9.34135 5.08357 9.34135 5.65584C9.33034 6.31614 8.82411 6.8554 8.10877 6.8554C7.44847 6.8664 6.93122 7.05349 6.57906 7.62575C6.36996 7.95591 6.42499 8.33008 6.36996 8.68225C6.27092 9.32055 5.78669 9.79377 5.21442 9.80477Z" fill="#F7F8FA"/>
<path d="M10.2658 14.8341C10.2548 14.1188 10.739 13.6346 11.4764 13.5575C12.786 13.4255 13.0831 13.1283 13.2262 11.8077C13.2922 11.1144 13.8095 10.6082 14.4257 10.6082C15.053 10.6192 15.5483 11.0814 15.5813 11.6867C15.6143 12.369 15.1521 12.8862 14.4367 12.9743C13.0281 13.1393 12.808 13.3484 12.6099 14.7901C12.5219 15.4064 12.1477 15.8356 11.5864 15.9016C11.0692 15.9677 10.662 15.7476 10.3979 15.2963C10.2988 15.1423 10.2438 14.9662 10.2658 14.8341Z" fill="#F7F8FA"/>
<path d="M15.4603 5.80983C15.4493 6.44812 14.943 6.93235 14.2937 6.92134C13.6444 6.91034 13.1382 6.4041 13.1382 5.77681C13.1382 5.18253 13.7104 4.61027 14.2937 4.61027C14.932 4.59926 15.4713 5.16052 15.4603 5.80983Z" fill="white"/>
</g>
<defs>
<clipPath id="clip0">
<rect width="12" height="12" fill="white" transform="translate(4 4)"/>
</clipPath>
</defs>
</svg>
