<svg width="12" height="10" viewBox="0 0 12 10" fill="none" xmlns="http://www.w3.org/2000/svg">
<path fill-rule="evenodd" clip-rule="evenodd" d="M1 0C0.447715 0 0 0.447715 0 1C0 1.55228 0.447715 2 1 2H11C11.5523 2 12 1.55228 12 1C12 0.447715 11.5523 0 11 0H1ZM0 5C0 4.44772 0.447715 4 1 4H11C11.5523 4 12 4.44772 12 5C12 5.55228 11.5523 6 11 6H1C0.447715 6 0 5.55228 0 5ZM0 9C0 8.44771 0.447715 8 1 8H11C11.5523 8 12 8.44771 12 9C12 9.55229 11.5523 10 11 10H1C0.447715 10 0 9.55229 0 9Z" fill="#1D2B46"/>
</svg>
