<svg width="16" height="16" viewBox="0 0 16 16" fill="none" xmlns="http://www.w3.org/2000/svg">
<path fill-rule="evenodd" clip-rule="evenodd" d="M7.99992 1.33301C4.31992 1.33301 1.33325 4.31967 1.33325 7.99967C1.33325 11.6797 4.31992 14.6663 7.99992 14.6663C11.6799 14.6663 14.6666 11.6797 14.6666 7.99967C14.6666 4.31967 11.6799 1.33301 7.99992 1.33301ZM7.33325 4.66634V5.99967H8.66659V4.66634H7.33325ZM8.66659 10.6663C8.66659 11.033 8.36659 11.333 7.99992 11.333C7.63325 11.333 7.33325 11.033 7.33325 10.6663V7.99967C7.33325 7.63301 7.63325 7.33301 7.99992 7.33301C8.36659 7.33301 8.66659 7.63301 8.66659 7.99967V10.6663ZM2.66659 7.99967C2.66659 10.9397 5.05992 13.333 7.99992 13.333C10.9399 13.333 13.3333 10.9397 13.3333 7.99967C13.3333 5.05967 10.9399 2.66634 7.99992 2.66634C5.05992 2.66634 2.66659 5.05967 2.66659 7.99967Z" fill="#93A9BC"/>
</svg>
