<svg width="8" height="8" viewBox="0 0 8 8" fill="none" xmlns="http://www.w3.org/2000/svg">
<path d="M6.10024 1.90307C6.03796 1.84066 5.95341 1.80558 5.86524 1.80558C5.77706 1.80558 5.69251 1.84066 5.63024 1.90307L4.00023 3.52974L2.37023 1.89974C2.30796 1.83732 2.22341 1.80225 2.13523 1.80225C2.04706 1.80225 1.96251 1.83732 1.90023 1.89974C1.77023 2.02974 1.77023 2.23974 1.90023 2.36974L3.53023 3.99974L1.90023 5.62974C1.77023 5.75974 1.77023 5.96974 1.90023 6.09974C2.03023 6.22974 2.24023 6.22974 2.37023 6.09974L4.00023 4.46974L5.63024 6.09974C5.76024 6.22974 5.97024 6.22974 6.10024 6.09974C6.23024 5.96974 6.23024 5.75974 6.10024 5.62974L4.47023 3.99974L6.10024 2.36974C6.2269 2.24307 6.2269 2.02974 6.10024 1.90307Z" fill="white"/>
</svg>
