<svg width="8" height="8" viewBox="0 0 8 8" fill="none" xmlns="http://www.w3.org/2000/svg">
<path fill-rule="evenodd" clip-rule="evenodd" d="M3.99984 0.666504C2.15984 0.666504 0.666504 2.15984 0.666504 3.99984C0.666504 5.83984 2.15984 7.33317 3.99984 7.33317C5.83984 7.33317 7.33317 5.83984 7.33317 3.99984C7.33317 2.15984 5.83984 0.666504 3.99984 0.666504ZM3.99984 6.66644C2.5265 6.66644 1.33317 5.4731 1.33317 3.99977C1.33317 3.38311 1.54317 2.81644 1.8965 2.36644L5.63317 6.10311C5.18317 6.45644 4.6165 6.66644 3.99984 6.66644ZM2.36652 1.8965L6.10319 5.63317C6.45652 5.18317 6.66652 4.6165 6.66652 3.99984C6.66652 2.5265 5.47319 1.33317 3.99985 1.33317C3.38319 1.33317 2.81652 1.54317 2.36652 1.8965Z" fill="white"/>
</svg>
